<svg xmlns="http://www.w3.org/2000/svg" width="64" height="64" viewBox="0 0 16.933 16.933">
  <path d="M 0,0 H 16.961 V 16.933 H 0 Z" fill="#00005f" />
  <path d="M 5.395,4.5 H 6.277 V 5.381 H 5.395 c -0.00178,2.8763301 0,2.8763301 0,6.171 h 0.882 v 0.881 H 5.395 C 4.924,12.314 4.514,12.037 4.514,11.552 4.4961302,8.2616726 4.491963,8.2497703 4.514,5.381 4.5145511,4.8946656 4.9086656,4.5005511 5.395,4.5 m 6.171,0 c 0.486725,-3e-7 0.881448,0.3942754 0.882,0.881 0.01244,2.8763301 -0.02285,2.8763301 0,6.171 -5.52e-4,0.486725 -0.395275,0.881 -0.882,0.881 h -0.882 v -0.881 h 0.882 c -0.01112,-3.2946699 -0.01112,-3.2946699 0,-6.171 H 10.684 V 4.5 h 0.882 M 8.481,9.789 c 0.2430053,0 0.44,0.1969947 0.44,0.44 5.532e-4,0.243396 -0.1966036,0.441001 -0.44,0.441 C 8.2376043,10.670553 8.0399994,10.473396 8.04,10.23 8.0394468,9.9866043 8.2366036,9.7889994 8.48,9.789 m -1.762,0 c 0.2430053,0 0.44,0.1969947 0.44,0.44 5.532e-4,0.243396 -0.1966036,0.441001 -0.44,0.441 C 6.4746043,10.670553 6.2769994,10.473396 6.277,10.23 6.2764468,9.9866043 6.4736036,9.7889994 6.717,9.789 m 3.527,0 c 0.243005,0 0.44,0.1969947 0.44,0.44 5.53e-4,0.243396 -0.196604,0.441001 -0.44,0.441 -0.243396,5.53e-4 -0.4410006,-0.196604 -0.441,-0.44 -5.532e-4,-0.2433957 0.1966036,-0.4410006 0.44,-0.441 z" fill="#fff" />
</svg>
